<svg width="159" height="33" viewBox="0 0 159 33" fill="none" xmlns="http://www.w3.org/2000/svg">
<path d="M86.0314 10.7854C84.123 6.99832 79.5 5.36559 75.442 6.36149C70.4814 7.60127 67.6291 12.5265 65.7965 16.8421C63.8673 21.3676 63.3575 27.4514 67.6016 30.9336C71.4184 34.0704 77.3367 33.4403 80.7608 30.0326C82.6279 28.1831 83.3307 25.5341 81.2362 23.5695C79.1418 21.6048 75.7865 21.8012 73.0306 22.0587C72.7826 22.0587 71.3151 22.7362 72.0661 22.9597C78.2003 24.6102 84.6221 24.9543 90.9024 23.9692C91.178 23.9285 92.0323 23.7388 92.0461 23.3594C92.0599 22.98 91.4881 22.9936 91.2125 23.0342C85.366 23.9466 79.3889 23.6256 73.6782 22.0925L72.7137 22.9936C74.9253 22.7836 77.3918 22.6074 79.19 24.1385C80.8573 25.5545 80.9193 27.5937 79.6171 29.2874C79.0198 30.087 78.2484 30.7453 77.3591 31.2142C76.4699 31.6831 75.4853 31.9506 74.4774 31.9973C73.4291 31.9952 72.3919 31.786 71.4273 31.3822C70.4627 30.9784 69.5905 30.3881 68.8624 29.6464C65.7965 26.5504 65.8929 21.7809 67.2295 17.9532C67.9737 15.8743 68.956 13.8855 70.1576 12.0252C71.1563 10.2816 72.576 8.80653 74.2914 7.72999C77.7363 5.78563 82.4075 7.98744 84.0679 11.2868C84.3641 11.8829 86.3001 11.2326 86.0659 10.7651L86.0314 10.7854Z" fill="#FFE5DB"/>
<path d="M32.5331 16.7676C32.4848 23.0681 28.5164 29.0638 22.4121 31.2182C16.3079 33.3726 9.32174 30.9743 5.39462 26.049C3.40675 23.5347 2.23291 20.4911 2.0253 17.3128C1.81769 14.1346 2.58588 10.9683 4.23026 8.22456C5.83816 5.54863 8.27367 3.44801 11.1814 2.22925C14.0891 1.01049 17.3168 0.737381 20.3934 1.44977C27.5587 3.10282 32.4779 9.62694 32.5331 16.7676C32.5331 17.2892 34.538 16.9437 34.5311 16.2391C34.4924 12.7917 33.3518 9.44362 31.2708 6.66897C29.1897 3.89433 26.2737 1.83376 22.9357 0.779065C19.5546 -0.231332 15.9475 -0.251734 12.5548 0.720353C9.16206 1.69244 6.13063 3.61494 3.83066 6.2531C1.60643 8.89728 0.281216 12.1606 0.0414556 15.584C-0.198304 19.0075 0.659457 22.4186 2.49407 25.3377C6.33162 31.3401 13.7036 34.0704 20.669 32.6138C24.5265 31.8441 28.0019 29.8045 30.5219 26.8313C33.042 23.8582 34.4561 20.1292 34.5311 16.2595C34.5311 15.731 32.54 16.063 32.5331 16.7676Z" fill="#FFE5DB"/>
<path d="M28.3717 27.0991C25.9396 28.8063 21.8747 28.305 18.9604 27.3769C16.859 26.6994 14.8266 25.8525 12.7597 25.0531C17.7754 21.0018 20.2901 12.1065 20.9033 6.91021C20.9791 6.30048 19.8078 6.55792 19.5253 6.68664C18.328 7.1225 17.3139 7.94073 16.6455 9.0104C16.1838 9.7353 18.1681 9.5185 18.4919 9.0104C18.5503 8.89298 18.617 8.77978 18.6917 8.67166C17.9525 13.5653 16.0655 18.2227 13.1799 22.2754C12.6339 23.1071 11.9491 23.8423 11.1544 24.4501L11.0235 24.3892C9.3355 23.7794 5.51173 21.9706 4.1338 24.1317C4.07717 24.2116 4.03088 24.2981 3.996 24.3892V27.0991C4.09246 27.1804 4.18202 27.2685 4.28537 27.3497C4.38871 27.431 8.03335 27.2143 8.41918 27.1465C9.45404 26.963 10.4463 26.5957 11.3473 26.0625C13.8391 27.1094 16.3849 28.0276 18.9742 28.8131C20.4248 29.2376 21.9164 29.5123 23.4249 29.6329H25.5676L25.6709 29.5583C26.4701 29.4557 27.2471 29.227 27.9721 28.8809L28.3717 27.0991ZM8.39162 25.297C4.41627 25.7374 6.72431 24.755 7.75777 24.7347C8.26735 24.7786 8.76108 24.9312 9.2046 25.1818C8.95657 25.236 8.71543 25.2767 8.41918 25.3038L8.39162 25.297Z" fill="#FFE5DB"/>
<path d="M38.0035 26.3268C37.411 25.2428 36.1639 25.026 35.0065 25.1954C34.3077 25.2873 33.6416 25.5433 33.0648 25.9419C32.4879 26.3405 32.0172 26.8699 31.6925 27.4853C31.3422 28.1552 31.085 28.8685 30.9278 29.6058C30.7762 30.2833 31.4376 30.4662 32.0508 30.4323C32.712 30.3888 33.3451 30.153 33.8697 29.7548C34.1308 29.5622 34.3628 29.3341 34.5586 29.0773C34.6903 28.9269 34.8058 28.7634 34.9031 28.5896L35.0685 28.3931C34.724 28.3931 34.6344 28.4473 34.8067 28.6167C34.8893 29.1044 35.5783 29.5516 36.0055 29.7142C36.7036 29.9396 37.4569 29.9396 38.155 29.7142C38.7588 29.5595 39.3058 29.2401 39.7328 28.7928C39.7879 28.7386 40.3391 28.0747 40.3322 28.0611L39.9739 28.1424C39.5881 28.1424 39.5123 28.1898 39.7397 28.3389C39.7397 28.4947 39.9808 28.7725 40.0428 28.9147C40.6422 30.1613 41.7515 30.4797 43.1018 30.3375C43.8423 30.2378 44.5699 30.0606 45.2721 29.809C46.4158 29.45 46.9876 29.8632 47.9315 30.4323C49.5919 31.435 51.2937 31.0217 53.085 30.6152L59.9747 29.0435C60.2227 28.9825 60.9599 28.7251 60.8634 28.366C60.767 28.0069 59.9747 28.1695 59.7542 28.2169L54.9934 29.3077L52.6923 29.809C51.9367 30.0984 51.108 30.1482 50.3222 29.9513C49.2199 29.5313 48.4965 28.6844 47.2425 28.5963C46.5555 28.5809 45.8707 28.6794 45.217 28.8876C44.6113 29.1493 43.9671 29.314 43.3085 29.3754C42.0064 29.3077 42.2268 27.9053 41.3174 27.3836C40.408 26.862 39.1954 27.3836 38.5615 28.0137C38.2791 28.2982 37.9897 28.8605 37.7279 28.8334C37.1009 28.7793 36.9494 28.095 36.5842 27.7224C35.8539 26.9772 34.4553 27.404 33.725 27.946C33.1787 28.3613 32.722 28.8795 32.3815 29.4703C32.2024 29.8158 32.8707 29.3483 32.8913 29.3212C33.0085 29.1857 33.0222 28.8402 33.0705 28.6438C33.1692 28.3005 33.2888 27.9634 33.4287 27.6343C33.6423 27.133 34.0557 26.2794 34.6482 26.1032C34.9197 26.0688 35.1953 26.1189 35.4362 26.2465C35.6772 26.3741 35.8715 26.5728 35.9917 26.8146C36.3086 27.404 38.2308 26.7333 37.9897 26.2929L38.0035 26.3268Z" fill="#FFE5DB"/>
<path d="M88.8769 29.9919C89.7355 28.9299 90.4985 27.7965 91.1573 26.6045C91.4812 26.0151 91.7843 25.4053 92.0599 24.7888C92.1839 24.5179 92.301 24.2401 92.4113 23.9623L92.618 23.4474C92.68 23.2781 92.8384 23.1426 92.618 23.3052L91.867 23.5626C91.6327 23.6033 91.5776 23.4407 91.6741 23.6575C91.7154 23.7387 91.7981 23.82 91.8463 23.8946C91.8945 23.9691 92.0323 24.2469 92.1219 24.423C92.28 24.7762 92.4788 25.1103 92.7144 25.4189C92.9867 25.7179 93.3265 25.9499 93.7065 26.0964C94.111 26.2783 94.4395 26.5918 94.6366 26.9839C94.9995 27.7554 95.5175 28.4468 96.1593 29.0163C96.5455 29.3085 96.9955 29.5084 97.4738 29.6001C97.9521 29.6918 98.4456 29.6729 98.9151 29.5447C99.2389 29.4702 99.8728 29.1721 99.7763 28.7589C99.6799 28.3456 98.9151 28.4405 98.6327 28.5014C98.7567 28.5014 98.4604 28.454 98.3708 28.4134C98.228 28.354 98.0937 28.2765 97.9712 28.183C97.6528 27.9685 97.3733 27.7028 97.1445 27.3971C96.8227 26.7336 96.4176 26.1122 95.9388 25.5476C95.6446 25.3291 95.3226 25.1491 94.9811 25.0124C94.6927 24.853 94.4543 24.6186 94.2922 24.3349C93.9546 23.7658 93.7616 22.98 93.1485 22.6141C92.7406 22.4173 92.2726 22.3777 91.8366 22.503C91.4005 22.6284 91.0279 22.9097 90.7922 23.2916C90.4064 24.0301 90.1721 24.8634 89.8001 25.6154C89.0444 27.157 88.1203 28.6131 87.0442 29.958C86.7411 30.3306 87.2991 30.561 87.5954 30.5745C87.8429 30.5892 88.0906 30.5473 88.3189 30.4521C88.5472 30.3569 88.75 30.211 88.9113 30.0258L88.8769 29.9919Z" fill="#FFE5DB"/>
<path d="M106.79 27.4447C106.674 27.0538 106.451 26.7021 106.144 26.4283C105.838 26.1546 105.46 25.9694 105.054 25.8932C104.441 25.8213 103.821 25.8718 103.229 26.0418C102.637 26.2118 102.086 26.4977 101.609 26.8824C101.262 27.1682 101.044 27.5773 101.003 28.0205C101.003 28.4948 101.637 28.5896 101.995 28.698L103.566 29.1113C104.096 29.2535 104.634 29.4365 105.178 29.5313C105.812 29.6161 106.456 29.4846 107.004 29.1587C107.094 29.1138 107.175 29.0518 107.241 28.9763C107.307 28.9007 107.358 28.8131 107.389 28.7183C107.407 28.5494 107.407 28.3792 107.389 28.2102C107.379 28.1338 107.379 28.0563 107.389 27.9799C107.389 27.9799 107.389 27.9257 107.389 27.9189C107.387 27.9009 107.387 27.8827 107.389 27.8647C107.357 27.8976 107.32 27.925 107.279 27.946C107.341 27.8986 107.548 27.7834 107.513 27.6615C107.479 27.5395 107.245 27.5395 107.169 27.5327C106.683 27.5282 106.206 27.6572 105.791 27.9053C105.656 27.9817 105.545 28.0926 105.47 28.2263C105.395 28.36 105.358 28.5114 105.364 28.6641C105.364 28.7861 105.364 28.908 105.364 29.0232C105.368 29.0637 105.368 29.1046 105.364 29.1451C105.357 29.1696 105.345 29.1925 105.329 29.2129C105.398 29.1313 105.489 29.0703 105.591 29.0367L106.356 28.8064H106.273L106.735 28.7657C106.53 28.7311 106.329 28.6767 106.135 28.6032L105.529 28.4473L104.213 28.095L103.607 27.9324C103.44 27.9054 103.277 27.8553 103.125 27.7834C102.822 27.5937 103.028 27.2008 103.173 26.9772C103.25 26.8572 103.345 26.7497 103.455 26.6588L103.559 26.5775C103.517 26.5775 103.511 26.5775 103.559 26.5775C103.738 26.4623 103.476 26.5775 103.628 26.5301C103.497 26.5775 103.483 26.5843 103.579 26.5301C103.49 26.563 103.398 26.5857 103.304 26.5978H103.256C103.345 26.5978 103.345 26.5978 103.256 26.5978C103.256 26.5978 103.469 26.5978 103.345 26.5978C103.432 26.6117 103.517 26.6321 103.6 26.6588C103.891 26.7585 104.152 26.9276 104.36 27.1511C104.568 27.3746 104.717 27.6454 104.792 27.9392C104.792 28.0544 105.061 28.0612 105.136 28.0679C105.384 28.0684 105.63 28.0342 105.867 27.9663C106.108 27.9079 106.34 27.8167 106.556 27.6953C106.645 27.6411 106.824 27.5327 106.797 27.4108L106.79 27.4447Z" fill="#FFE5DB"/>
<path d="M101.967 20.0736C103.332 20.9777 104.931 21.4806 106.576 21.5234C106.846 21.5406 107.116 21.4918 107.362 21.3811C107.58 21.2923 107.761 21.135 107.879 20.934C107.914 20.8437 107.926 20.7459 107.912 20.6499C107.899 20.554 107.86 20.463 107.801 20.3857C107.742 20.3083 107.663 20.2471 107.573 20.2079C107.483 20.1687 107.384 20.1528 107.286 20.1617C106.926 20.1508 106.567 20.1192 106.211 20.0668H106.087L105.805 20.0059L105.323 19.8704L104.847 19.701L104.585 19.5926L104.448 19.5384C104.53 19.5723 104.53 19.5723 104.448 19.5384C104.126 19.3797 103.816 19.201 103.517 19.0032C103.29 18.895 103.037 18.8504 102.785 18.8743C102.534 18.8982 102.293 18.9897 102.091 19.1387C101.767 19.3826 101.554 19.8162 101.967 20.1007V20.0736Z" fill="#FFE5DB"/>
<path d="M112.24 29.8903C112.626 29.1248 113.177 27.7495 114.114 27.4988C115.189 27.2075 115.375 28.4676 115.871 29.057C116.174 29.3584 116.577 29.5447 117.006 29.5831C117.436 29.6216 117.866 29.5096 118.22 29.267C118.547 29.0608 118.821 28.7824 119.019 28.4541C119.198 28.1898 119.419 28.0679 118.964 28.1289C118.509 28.1898 118.757 28.2102 118.964 28.3795C119.536 28.8199 119.942 29.4296 120.666 29.6667C121.08 29.7853 121.52 29.7853 121.934 29.6667C122.388 29.5583 122.747 29.2061 123.201 29.2738C124.207 29.4228 125.02 29.9513 126.081 29.8361C126.578 29.7622 127.055 29.588 127.48 29.3245C127.906 29.061 128.272 28.7139 128.555 28.305C129.307 27.2988 129.83 26.1449 130.088 24.9221C130.346 23.6992 130.333 22.436 130.05 21.2186C129.891 20.4869 128.32 20.9137 128.114 21.415C126.467 25.3512 128.982 29.3212 133.143 29.9919C134.018 30.1342 135.21 28.9486 133.88 28.7318C130.559 28.1966 128.754 24.5179 129.994 21.5438L128.058 21.747C128.39 23.193 128.306 24.7011 127.817 26.1032C127.579 26.8221 127.225 27.499 126.77 28.1085C126.591 28.3321 126.412 28.5828 126.136 28.6166C125.815 28.5884 125.502 28.5011 125.213 28.3592C124.628 28.1281 124.004 28.0085 123.373 28.0069C123.141 28.0125 122.91 28.0443 122.685 28.1018C122.381 28.1763 122.078 28.4337 121.789 28.4812C122.078 28.4337 121.823 28.4405 121.61 28.2711C121.396 28.1018 121.272 27.9527 121.1 27.7901C120.798 27.4644 120.43 27.2057 120.018 27.0313C119.513 26.8834 118.973 26.9065 118.483 27.0969C117.993 27.2873 117.583 27.6341 117.317 28.0814L117.118 28.3999C116.863 28.6979 117.069 28.6437 117.738 28.244C117.738 28.1356 117.476 27.7901 117.421 27.6817C117.207 27.1972 116.843 26.7917 116.38 26.5232C115.813 26.2766 115.192 26.1693 114.573 26.2106C113.954 26.2519 113.354 26.4406 112.825 26.7604C111.728 27.5044 110.88 28.551 110.386 29.7684C109.925 30.683 111.93 30.561 112.267 29.8903H112.24Z" fill="#FFE5DB"/>
<path d="M142.485 24.938C141.445 24.0573 140.274 23.3459 138.848 23.5018C137.752 23.6169 136.395 24.2131 136.092 25.3716C135.789 26.5301 136.726 27.5057 137.663 27.9934C139.041 28.7116 140.729 28.5558 142.182 29.0503C142.796 29.2792 143.466 29.3181 144.102 29.1619C144.739 29.0057 145.312 28.6618 145.744 28.1764C146.978 27.0179 148.169 27.6818 149.458 28.4135C152.4 30.0869 155.376 29.3145 158.38 28.2102C158.669 28.1018 159.172 27.7496 158.904 27.404C158.635 27.0585 157.898 27.2618 157.581 27.404C156.47 27.8776 155.296 28.1902 154.095 28.3322C152.918 28.3521 151.766 28.0059 150.801 27.3431C149.024 26.3201 147.108 25.9881 145.234 27.045C144.834 27.269 144.465 27.5447 144.139 27.8647C143.705 28.2848 143.801 28.1086 143.174 27.8647C142.079 27.4921 140.915 27.5463 139.805 27.2414C138.958 27.0043 137.807 26.1236 138.09 25.1209C138.455 23.8676 140.102 25.2768 140.611 25.7103C141.121 26.1439 143.016 25.4055 142.465 24.9312L142.485 24.938Z" fill="#FFE5DB"/>
</svg>
