<svg width="39" height="34" viewBox="0 0 39 34" fill="none" xmlns="http://www.w3.org/2000/svg">
<path d="M1.23759 2.4986C0.571196 2.4986 0 1.9293 0 1.23349C0 0.569302 0.571196 0 1.23759 0H4.47437C4.5061 0 4.56957 0 4.6013 0C5.74369 0.0316279 6.75915 0.253023 7.61595 0.790698C8.56794 1.39163 9.26607 2.30884 9.64687 3.66884C9.64687 3.70047 9.64687 3.73209 9.6786 3.76372L9.99593 5.02884H37.7624C38.4605 5.02884 39 5.59814 39 6.26233C39 6.38884 38.9683 6.51535 38.9365 6.64186L35.6998 19.6409C35.5728 20.2102 35.0651 20.5898 34.4939 20.5898H14.1847C14.629 22.2344 15.0732 23.12 15.6762 23.5312C16.406 24.0056 17.6753 24.0372 19.8015 24.0056H19.8332H34.1766C34.8747 24.0056 35.4142 24.5749 35.4142 25.2391C35.4142 25.9349 34.843 26.4726 34.1766 26.4726H19.8332C17.1993 26.5042 15.581 26.4409 14.2799 25.587C12.9471 24.7014 12.249 23.1833 11.5509 20.4316L7.29862 4.39628C7.29862 4.36465 7.29862 4.36465 7.26688 4.33302C7.07648 3.63721 6.75915 3.16279 6.31489 2.90977C5.87063 2.62512 5.2677 2.4986 4.56957 2.4986C4.53784 2.4986 4.5061 2.4986 4.47437 2.4986H1.23759ZM30.4638 27.9274C32.1456 27.9274 33.5102 29.2874 33.5102 30.9637C33.5102 32.64 32.1456 34 30.4638 34C28.7819 34 27.4174 32.64 27.4174 30.9637C27.4174 29.2874 28.7819 27.9274 30.4638 27.9274ZM17.1042 27.9274C18.786 27.9274 20.1505 29.2874 20.1505 30.9637C20.1505 32.64 18.786 34 17.1042 34C15.4223 34 14.0578 32.64 14.0578 30.9637C14.0578 29.2874 15.4223 27.9274 17.1042 27.9274ZM10.6941 7.49581L13.5183 18.0912H33.5419L36.1758 7.49581H10.6941Z" fill="#FFE5DB"/>
</svg>
